{
    "asset" : {
        "generator" : "Khronos glTF Blender I/O v1.6.16",
        "version" : "2.0"
    },
    "scene" : 0,
    "scenes" : [
        {
            "name" : "Scene",
            "nodes" : [
                0,
                1,
                2,
                3,
                4
            ]
        }
    ],
    "nodes" : [
        {
            "mesh" : 0,
            "name" : "sheath",
            "translation" : [
                0,
                0.08305852860212326,
                0
            ]
        },
        {
            "mesh" : 1,
            "name" : "sheath_head",
            "translation" : [
                0,
                0.08305852860212326,
                0
            ]
        },
        {
            "mesh" : 2,
            "name" : "dilator_head_top",
            "translation" : [
                0,
                0.08305852860212326,
                0
            ]
        },
        {
            "mesh" : 3,
            "name" : "dilator_head_bottom",
            "translation" : [
                0,
                0.08305852860212326,
                0
            ]
        },
        {
            "mesh" : 4,
            "name" : "dilator",
            "translation" : [
                0,
                0.08305852860212326,
                0
            ]
        }
    ],
    "materials" : [
        {
            "name" : "sheath_bottom",
            "pbrMetallicRoughness" : {
                "baseColorFactor" : [
                    0.6602661609649658,
                    0.7927731871604919,
                    1,
                    1
                ],
                "metallicFactor" : 0,
                "roughnessFactor" : 0.5
            }
        },
        {
            "doubleSided" : true,
            "name" : "dilator_head_top",
            "pbrMetallicRoughness" : {
                "baseColorFactor" : [
                    0.800000011920929,
                    0.800000011920929,
                    0.800000011920929,
                    1
                ],
                "metallicFactor" : 0,
                "roughnessFactor" : 0.20000000298023224
            }
        },
        {
            "doubleSided" : true,
            "name" : "dilator",
            "pbrMetallicRoughness" : {
                "baseColorFactor" : [
                    0.3998290002346039,
                    0.5370673537254333,
                    0.8000000715255737,
                    1
                ],
                "metallicFactor" : 0,
                "roughnessFactor" : 0.5
            }
        }
    ],
    "meshes" : [
        {
            "name" : "Circle.001",
            "primitives" : [
                {
                    "attributes" : {
                        "POSITION" : 0,
                        "NORMAL" : 1,
                        "TEXCOORD_0" : 2
                    },
                    "indices" : 3,
                    "material" : 0
                }
            ]
        },
        {
            "name" : "Circle.004",
            "primitives" : [
                {
                    "attributes" : {
                        "POSITION" : 4,
                        "NORMAL" : 5,
                        "TEXCOORD_0" : 6
                    },
                    "indices" : 7,
                    "material" : 1
                }
            ]
        },
        {
            "name" : "Circle.006",
            "primitives" : [
                {
                    "attributes" : {
                        "POSITION" : 8,
                        "NORMAL" : 9,
                        "TEXCOORD_0" : 10
                    },
                    "indices" : 11,
                    "material" : 1
                }
            ]
        },
        {
            "name" : "Circle.007",
            "primitives" : [
                {
                    "attributes" : {
                        "POSITION" : 12,
                        "NORMAL" : 13,
                        "TEXCOORD_0" : 14
                    },
                    "indices" : 15,
                    "material" : 1
                }
            ]
        },
        {
            "name" : "Circle.008",
            "primitives" : [
                {
                    "attributes" : {
                        "POSITION" : 16,
                        "NORMAL" : 17,
                        "TEXCOORD_0" : 18
                    },
                    "indices" : 19,
                    "material" : 2
                }
            ]
        }
    ],
    "accessors" : [
        {
            "bufferView" : 0,
            "componentType" : 5126,
            "count" : 80,
            "max" : [
                0.00369792222045362,
                0.0742826834321022,
                0.0036978982388973236
            ],
            "min" : [
                -0.003698748303577304,
                -0.15931132435798645,
                -0.0036987727507948875
            ],
            "type" : "VEC3"
        },
        {
            "bufferView" : 1,
            "componentType" : 5126,
            "count" : 80,
            "type" : "VEC3"
        },
        {
            "bufferView" : 2,
            "componentType" : 5126,
            "count" : 80,
            "type" : "VEC2"
        },
        {
            "bufferView" : 3,
            "componentType" : 5123,
            "count" : 288,
            "type" : "SCALAR"
        },
        {
            "bufferView" : 4,
            "componentType" : 5126,
            "count" : 630,
            "max" : [
                0.03265722841024399,
                0.0968843325972557,
                0.007582530844956636
            ],
            "min" : [
                -0.03265805542469025,
                0.07417506724596024,
                -0.0075834053568542
            ],
            "type" : "VEC3"
        },
        {
            "bufferView" : 5,
            "componentType" : 5126,
            "count" : 630,
            "type" : "VEC3"
        },
        {
            "bufferView" : 6,
            "componentType" : 5126,
            "count" : 630,
            "type" : "VEC2"
        },
        {
            "bufferView" : 7,
            "componentType" : 5123,
            "count" : 1836,
            "type" : "SCALAR"
        },
        {
            "bufferView" : 8,
            "componentType" : 5126,
            "count" : 448,
            "max" : [
                0.01734817959368229,
                0.14249059557914734,
                0.008177608251571655
            ],
            "min" : [
                -0.008178457617759705,
                0.11464790254831314,
                -0.008178484626114368
            ],
            "type" : "VEC3"
        },
        {
            "bufferView" : 9,
            "componentType" : 5126,
            "count" : 448,
            "type" : "VEC3"
        },
        {
            "bufferView" : 10,
            "componentType" : 5126,
            "count" : 448,
            "type" : "VEC2"
        },
        {
            "bufferView" : 11,
            "componentType" : 5123,
            "count" : 1506,
            "type" : "SCALAR"
        },
        {
            "bufferView" : 12,
            "componentType" : 5126,
            "count" : 376,
            "max" : [
                0.00969480536878109,
                0.11500576883554459,
                0.009694782085716724
            ],
            "min" : [
                -0.009695630520582199,
                0.09248576313257217,
                -0.009695655666291714
            ],
            "type" : "VEC3"
        },
        {
            "bufferView" : 13,
            "componentType" : 5126,
            "count" : 376,
            "type" : "VEC3"
        },
        {
            "bufferView" : 14,
            "componentType" : 5126,
            "count" : 376,
            "type" : "VEC2"
        },
        {
            "bufferView" : 15,
            "componentType" : 5123,
            "count" : 1080,
            "type" : "SCALAR"
        },
        {
            "bufferView" : 16,
            "componentType" : 5126,
            "count" : 68,
            "max" : [
                0.0028953116852790117,
                -0.15931133925914764,
                0.0028952870052307844
            ],
            "min" : [
                -0.0028961370699107647,
                -0.1970582753419876,
                -0.0028961615171283484
            ],
            "type" : "VEC3"
        },
        {
            "bufferView" : 17,
            "componentType" : 5126,
            "count" : 68,
            "type" : "VEC3"
        },
        {
            "bufferView" : 18,
            "componentType" : 5126,
            "count" : 68,
            "type" : "VEC2"
        },
        {
            "bufferView" : 19,
            "componentType" : 5123,
            "count" : 288,
            "type" : "SCALAR"
        }
    ],
    "bufferViews" : [
        {
            "buffer" : 0,
            "byteLength" : 960,
            "byteOffset" : 0
        },
        {
            "buffer" : 0,
            "byteLength" : 960,
            "byteOffset" : 960
        },
        {
            "buffer" : 0,
            "byteLength" : 640,
            "byteOffset" : 1920
        },
        {
            "buffer" : 0,
            "byteLength" : 576,
            "byteOffset" : 2560
        },
        {
            "buffer" : 0,
            "byteLength" : 7560,
            "byteOffset" : 3136
        },
        {
            "buffer" : 0,
            "byteLength" : 7560,
            "byteOffset" : 10696
        },
        {
            "buffer" : 0,
            "byteLength" : 5040,
            "byteOffset" : 18256
        },
        {
            "buffer" : 0,
            "byteLength" : 3672,
            "byteOffset" : 23296
        },
        {
            "buffer" : 0,
            "byteLength" : 5376,
            "byteOffset" : 26968
        },
        {
            "buffer" : 0,
            "byteLength" : 5376,
            "byteOffset" : 32344
        },
        {
            "buffer" : 0,
            "byteLength" : 3584,
            "byteOffset" : 37720
        },
        {
            "buffer" : 0,
            "byteLength" : 3012,
            "byteOffset" : 41304
        },
        {
            "buffer" : 0,
            "byteLength" : 4512,
            "byteOffset" : 44316
        },
        {
            "buffer" : 0,
            "byteLength" : 4512,
            "byteOffset" : 48828
        },
        {
            "buffer" : 0,
            "byteLength" : 3008,
            "byteOffset" : 53340
        },
        {
            "buffer" : 0,
            "byteLength" : 2160,
            "byteOffset" : 56348
        },
        {
            "buffer" : 0,
            "byteLength" : 816,
            "byteOffset" : 58508
        },
        {
            "buffer" : 0,
            "byteLength" : 816,
            "byteOffset" : 59324
        },
        {
            "buffer" : 0,
            "byteLength" : 544,
            "byteOffset" : 60140
        },
        {
            "buffer" : 0,
            "byteLength" : 576,
            "byteOffset" : 60684
        }
    ],
    "buffers" : [
        {
            "byteLength" : 61260,
            "uri" : "adelante.bin"
        }
    ]
}
