{
    "asset" : {
        "generator" : "Khronos glTF Blender I/O v1.6.16",
        "version" : "2.0"
    },
    "scene" : 0,
    "scenes" : [
        {
            "name" : "Scene",
            "nodes" : [
                0,
                1
            ]
        }
    ],
    "nodes" : [
        {
            "mesh" : 0,
            "name" : "sheath",
            "translation" : [
                0,
                0.08305852860212326,
                0
            ]
        },
        {
            "mesh" : 1,
            "name" : "dilator",
            "translation" : [
                0,
                0.08305852860212326,
                0
            ]
        }
    ],
    "materials" : [
        {
            "doubleSided" : true,
            "name" : "sheath_head",
            "pbrMetallicRoughness" : {
                "baseColorFactor" : [
                    0.799103319644928,
                    0.08228256553411484,
                    0.021219035610556602,
                    1
                ],
                "metallicFactor" : 0,
                "roughnessFactor" : 0.30000001192092896
            }
        },
        {
            "name" : "sheath_bottom",
            "pbrMetallicRoughness" : {
                "baseColorFactor" : [
                    0.6602661609649658,
                    0.7927731871604919,
                    1,
                    1
                ],
                "metallicFactor" : 0,
                "roughnessFactor" : 0.5
            }
        },
        {
            "doubleSided" : true,
            "name" : "dilator_head_top",
            "pbrMetallicRoughness" : {
                "baseColorFactor" : [
                    0.800000011920929,
                    0.800000011920929,
                    0.800000011920929,
                    1
                ],
                "metallicFactor" : 0,
                "roughnessFactor" : 0.20000000298023224
            }
        },
        {
            "doubleSided" : true,
            "name" : "dilator_head_bottom",
            "pbrMetallicRoughness" : {
                "baseColorTexture" : {
                    "index" : 0
                },
                "metallicFactor" : 0,
                "roughnessFactor" : 0.30000001192092896
            }
        },
        {
            "doubleSided" : true,
            "name" : "dilator",
            "pbrMetallicRoughness" : {
                "baseColorFactor" : [
                    0.3998290002346039,
                    0.5370673537254333,
                    0.8000000715255737,
                    1
                ],
                "metallicFactor" : 0,
                "roughnessFactor" : 0.5
            }
        }
    ],
    "meshes" : [
        {
            "name" : "Circle.001",
            "primitives" : [
                {
                    "attributes" : {
                        "POSITION" : 0,
                        "NORMAL" : 1,
                        "TEXCOORD_0" : 2
                    },
                    "indices" : 3,
                    "material" : 0
                },
                {
                    "attributes" : {
                        "POSITION" : 4,
                        "NORMAL" : 5,
                        "TEXCOORD_0" : 6
                    },
                    "indices" : 7,
                    "material" : 1
                }
            ]
        },
        {
            "name" : "Circle.005",
            "primitives" : [
                {
                    "attributes" : {
                        "POSITION" : 8,
                        "NORMAL" : 9,
                        "TEXCOORD_0" : 10
                    },
                    "indices" : 11,
                    "material" : 2
                },
                {
                    "attributes" : {
                        "POSITION" : 12,
                        "NORMAL" : 13,
                        "TEXCOORD_0" : 14
                    },
                    "indices" : 15,
                    "material" : 3
                },
                {
                    "attributes" : {
                        "POSITION" : 16,
                        "NORMAL" : 17,
                        "TEXCOORD_0" : 18
                    },
                    "indices" : 19,
                    "material" : 4
                }
            ]
        }
    ],
    "textures" : [
        {
            "sampler" : 0,
            "source" : 0
        }
    ],
    "images" : [
        {
            "mimeType" : "image/png",
            "name" : "dilator_head_bottom",
            "uri" : "dilator_head_bottom.png"
        }
    ],
    "accessors" : [
        {
            "bufferView" : 0,
            "componentType" : 5126,
            "count" : 8468,
            "max" : [
                0.03221769630908966,
                0.0969047024846077,
                0.0075173331424593925
            ],
            "min" : [
                -0.03221852332353592,
                0.07417474687099457,
                -0.007518206723034382
            ],
            "type" : "VEC3"
        },
        {
            "bufferView" : 1,
            "componentType" : 5126,
            "count" : 8468,
            "type" : "VEC3"
        },
        {
            "bufferView" : 2,
            "componentType" : 5126,
            "count" : 8468,
            "type" : "VEC2"
        },
        {
            "bufferView" : 3,
            "componentType" : 5123,
            "count" : 31530,
            "type" : "SCALAR"
        },
        {
            "bufferView" : 4,
            "componentType" : 5126,
            "count" : 832,
            "max" : [
                0.003604081692174077,
                0.07428272813558578,
                0.0036978970747441053
            ],
            "min" : [
                -0.0036049075424671173,
                -0.1593216061592102,
                -0.0036987715866416693
            ],
            "type" : "VEC3"
        },
        {
            "bufferView" : 5,
            "componentType" : 5126,
            "count" : 832,
            "type" : "VEC3"
        },
        {
            "bufferView" : 6,
            "componentType" : 5126,
            "count" : 832,
            "type" : "VEC2"
        },
        {
            "bufferView" : 7,
            "componentType" : 5123,
            "count" : 4224,
            "type" : "SCALAR"
        },
        {
            "bufferView" : 8,
            "componentType" : 5126,
            "count" : 2422,
            "max" : [
                0.017318174242973328,
                0.14249061048030853,
                0.007945680059492588
            ],
            "min" : [
                -0.007946528494358063,
                0.11464790999889374,
                -0.007946555502712727
            ],
            "type" : "VEC3"
        },
        {
            "bufferView" : 9,
            "componentType" : 5126,
            "count" : 2422,
            "type" : "VEC3"
        },
        {
            "bufferView" : 10,
            "componentType" : 5126,
            "count" : 2422,
            "type" : "VEC2"
        },
        {
            "bufferView" : 11,
            "componentType" : 5123,
            "count" : 7854,
            "type" : "SCALAR"
        },
        {
            "bufferView" : 12,
            "componentType" : 5126,
            "count" : 2259,
            "max" : [
                0.009603484533727169,
                0.11500578373670578,
                0.009603459388017654
            ],
            "min" : [
                -0.009604308754205704,
                0.09248577058315277,
                -0.009604332037270069
            ],
            "type" : "VEC3"
        },
        {
            "bufferView" : 13,
            "componentType" : 5126,
            "count" : 2259,
            "type" : "VEC3"
        },
        {
            "bufferView" : 14,
            "componentType" : 5126,
            "count" : 2259,
            "type" : "VEC2"
        },
        {
            "bufferView" : 15,
            "componentType" : 5123,
            "count" : 5808,
            "type" : "SCALAR"
        },
        {
            "bufferView" : 16,
            "componentType" : 5126,
            "count" : 259,
            "max" : [
                0.0031456858851015568,
                0.11903541535139084,
                0.0031456612050533295
            ],
            "min" : [
                -0.0031465115025639534,
                -0.19705830514431,
                -0.003146535949781537
            ],
            "type" : "VEC3"
        },
        {
            "bufferView" : 17,
            "componentType" : 5126,
            "count" : 259,
            "type" : "VEC3"
        },
        {
            "bufferView" : 18,
            "componentType" : 5126,
            "count" : 259,
            "type" : "VEC2"
        },
        {
            "bufferView" : 19,
            "componentType" : 5123,
            "count" : 1152,
            "type" : "SCALAR"
        }
    ],
    "bufferViews" : [
        {
            "buffer" : 0,
            "byteLength" : 101616,
            "byteOffset" : 0
        },
        {
            "buffer" : 0,
            "byteLength" : 101616,
            "byteOffset" : 101616
        },
        {
            "buffer" : 0,
            "byteLength" : 67744,
            "byteOffset" : 203232
        },
        {
            "buffer" : 0,
            "byteLength" : 63060,
            "byteOffset" : 270976
        },
        {
            "buffer" : 0,
            "byteLength" : 9984,
            "byteOffset" : 334036
        },
        {
            "buffer" : 0,
            "byteLength" : 9984,
            "byteOffset" : 344020
        },
        {
            "buffer" : 0,
            "byteLength" : 6656,
            "byteOffset" : 354004
        },
        {
            "buffer" : 0,
            "byteLength" : 8448,
            "byteOffset" : 360660
        },
        {
            "buffer" : 0,
            "byteLength" : 29064,
            "byteOffset" : 369108
        },
        {
            "buffer" : 0,
            "byteLength" : 29064,
            "byteOffset" : 398172
        },
        {
            "buffer" : 0,
            "byteLength" : 19376,
            "byteOffset" : 427236
        },
        {
            "buffer" : 0,
            "byteLength" : 15708,
            "byteOffset" : 446612
        },
        {
            "buffer" : 0,
            "byteLength" : 27108,
            "byteOffset" : 462320
        },
        {
            "buffer" : 0,
            "byteLength" : 27108,
            "byteOffset" : 489428
        },
        {
            "buffer" : 0,
            "byteLength" : 18072,
            "byteOffset" : 516536
        },
        {
            "buffer" : 0,
            "byteLength" : 11616,
            "byteOffset" : 534608
        },
        {
            "buffer" : 0,
            "byteLength" : 3108,
            "byteOffset" : 546224
        },
        {
            "buffer" : 0,
            "byteLength" : 3108,
            "byteOffset" : 549332
        },
        {
            "buffer" : 0,
            "byteLength" : 2072,
            "byteOffset" : 552440
        },
        {
            "buffer" : 0,
            "byteLength" : 2304,
            "byteOffset" : 554512
        }
    ],
    "samplers" : [
        {
            "magFilter" : 9729,
            "minFilter" : 9987
        }
    ],
    "buffers" : [
        {
            "byteLength" : 556816,
            "uri" : "adelante.bin"
        }
    ]
}
